<mxfile host="app.diagrams.net" modified="2021-08-18T05:14:51.223Z" agent="5.0 (X11; Linux x86_64) AppleWebKit/537.36 (KHTML, like Gecko) Chrome/92.0.4515.159 Safari/537.36" etag="YMlo-nbM0dtKy3gjNjAj" version="14.9.7" type="github">
  <diagram name="Page-1" id="b5b7bab2-c9e2-2cf4-8b2a-24fd1a2a6d21">
    <mxGraphModel dx="939" dy="524" grid="1" gridSize="10" guides="1" tooltips="1" connect="1" arrows="1" fold="1" page="1" pageScale="1" pageWidth="827" pageHeight="1169" background="none" math="0" shadow="0">
      <root>
        <mxCell id="0" />
        <mxCell id="1" parent="0" />
        <mxCell id="cUQcjMx7HRZLJn6nIaJ0-27" value="" style="group" vertex="1" connectable="0" parent="1">
          <mxGeometry x="300" y="240" width="795.83" height="660" as="geometry" />
        </mxCell>
        <mxCell id="6e0c8c40b5770093-72" value="" style="shape=folder;fontStyle=1;spacingTop=10;tabWidth=194;tabHeight=22;tabPosition=left;html=1;rounded=0;shadow=0;comic=0;labelBackgroundColor=none;strokeWidth=1;fillColor=none;fontFamily=Verdana;fontSize=10;align=center;" parent="cUQcjMx7HRZLJn6nIaJ0-27" vertex="1">
          <mxGeometry x="-40" y="3" width="810" height="657" as="geometry" />
        </mxCell>
        <mxCell id="cUQcjMx7HRZLJn6nIaJ0-9" value="" style="group" vertex="1" connectable="0" parent="cUQcjMx7HRZLJn6nIaJ0-27">
          <mxGeometry x="64.99972602739726" y="345" width="664.5205479452055" height="310" as="geometry" />
        </mxCell>
        <mxCell id="6e0c8c40b5770093-33" value="" style="shape=folder;fontStyle=1;spacingTop=10;tabWidth=123;tabHeight=24;tabPosition=left;html=1;rounded=0;shadow=0;comic=0;labelBackgroundColor=none;strokeColor=#000000;strokeWidth=1;fillColor=#ffffff;fontFamily=Verdana;fontSize=10;fontColor=#000000;align=center;" parent="cUQcjMx7HRZLJn6nIaJ0-9" vertex="1">
          <mxGeometry width="453.56164383561645" height="280" as="geometry" />
        </mxCell>
        <mxCell id="cUQcjMx7HRZLJn6nIaJ0-1" value="&lt;p style=&quot;margin: 0px ; margin-top: 4px ; text-align: center&quot;&gt;&lt;b&gt;JoystickView&lt;/b&gt;&lt;/p&gt;&lt;hr size=&quot;1&quot;&gt;&lt;p style=&quot;margin: 0px ; margin-left: 4px&quot;&gt;+ field: Type&lt;/p&gt;&lt;hr size=&quot;1&quot;&gt;&lt;p style=&quot;margin: 0px ; margin-left: 4px&quot;&gt;+ publishViewData(): x, y&lt;/p&gt;" style="verticalAlign=top;align=left;overflow=fill;fontSize=12;fontFamily=Helvetica;html=1;" vertex="1" parent="cUQcjMx7HRZLJn6nIaJ0-9">
          <mxGeometry x="18.165905631659054" y="45" width="187.51902587519024" height="90" as="geometry" />
        </mxCell>
        <mxCell id="cUQcjMx7HRZLJn6nIaJ0-2" value="&lt;p style=&quot;margin: 0px ; margin-top: 4px ; text-align: center&quot;&gt;&lt;b&gt;JoystickData&lt;/b&gt;&lt;/p&gt;&lt;hr size=&quot;1&quot;&gt;&lt;p style=&quot;margin: 0px ; margin-left: 4px&quot;&gt;+ field: Type&lt;/p&gt;&lt;hr size=&quot;1&quot;&gt;&lt;p style=&quot;margin: 0px ; margin-left: 4px&quot;&gt;+ toRosMessage(): Publisher&amp;nbsp;&lt;/p&gt;" style="verticalAlign=top;align=left;overflow=fill;fontSize=12;fontFamily=Helvetica;html=1;" vertex="1" parent="cUQcjMx7HRZLJn6nIaJ0-9">
          <mxGeometry x="234.39878234398782" y="45" width="187.51902587519024" height="90" as="geometry" />
        </mxCell>
        <mxCell id="cUQcjMx7HRZLJn6nIaJ0-15" value="Joystick" style="text;align=center;fontStyle=1;verticalAlign=middle;spacingLeft=3;spacingRight=3;strokeColor=none;rotatable=0;points=[[0,0.5],[1,0.5]];portConstraint=eastwest;" vertex="1" parent="cUQcjMx7HRZLJn6nIaJ0-9">
          <mxGeometry width="93.75951293759512" height="26" as="geometry" />
        </mxCell>
        <mxCell id="cUQcjMx7HRZLJn6nIaJ0-16" style="edgeStyle=elbowEdgeStyle;rounded=0;html=1;dashed=1;labelBackgroundColor=none;startFill=0;endArrow=open;endFill=0;endSize=10;fontFamily=Verdana;fontSize=10;elbow=vertical;entryX=0;entryY=0.75;entryDx=0;entryDy=0;" edge="1" parent="cUQcjMx7HRZLJn6nIaJ0-9" target="cUQcjMx7HRZLJn6nIaJ0-2">
          <mxGeometry relative="1" as="geometry">
            <mxPoint x="206.2709284627093" y="113" as="sourcePoint" />
            <mxPoint x="768.2420091324201" y="130" as="targetPoint" />
          </mxGeometry>
        </mxCell>
        <mxCell id="cUQcjMx7HRZLJn6nIaJ0-25" value="&lt;p style=&quot;margin: 0px ; margin-top: 4px ; text-align: center&quot;&gt;&lt;b&gt;JoystickEntity&lt;/b&gt;&lt;/p&gt;&lt;hr size=&quot;1&quot;&gt;&lt;p style=&quot;margin: 0px ; margin-left: 4px&quot;&gt;+ field: Type&lt;/p&gt;&lt;hr size=&quot;1&quot;&gt;&lt;p style=&quot;margin: 0px ; margin-left: 4px&quot;&gt;+ JoystickEntity():&amp;nbsp;&lt;/p&gt;" style="verticalAlign=top;align=left;overflow=fill;fontSize=12;fontFamily=Helvetica;html=1;" vertex="1" parent="cUQcjMx7HRZLJn6nIaJ0-9">
          <mxGeometry x="18.16590563165906" y="175" width="187.51902587519024" height="90" as="geometry" />
        </mxCell>
        <mxCell id="cUQcjMx7HRZLJn6nIaJ0-68" style="edgeStyle=orthogonalEdgeStyle;rounded=0;html=1;dashed=1;labelBackgroundColor=none;startFill=0;endArrow=open;endFill=0;endSize=10;fontFamily=Verdana;fontSize=10;elbow=vertical;exitX=0.5;exitY=0;exitDx=0;exitDy=0;entryX=0.25;entryY=1;entryDx=0;entryDy=0;" edge="1" parent="cUQcjMx7HRZLJn6nIaJ0-9" source="cUQcjMx7HRZLJn6nIaJ0-25" target="cUQcjMx7HRZLJn6nIaJ0-2">
          <mxGeometry relative="1" as="geometry">
            <mxPoint x="216.27092846270915" y="123" as="sourcePoint" />
            <mxPoint x="317.26027397260276" y="130" as="targetPoint" />
          </mxGeometry>
        </mxCell>
        <mxCell id="cUQcjMx7HRZLJn6nIaJ0-69" value="&lt;p style=&quot;margin: 0px ; margin-top: 4px ; text-align: center&quot;&gt;&lt;b&gt;JoystickDetailVH&lt;/b&gt;&lt;/p&gt;&lt;hr size=&quot;1&quot;&gt;&lt;p style=&quot;margin: 0px ; margin-left: 4px&quot;&gt;+ field: Type&lt;/p&gt;&lt;hr size=&quot;1&quot;&gt;&lt;p style=&quot;margin: 0px ; margin-left: 4px&quot;&gt;+ JoystickEntity():&amp;nbsp;&lt;/p&gt;" style="verticalAlign=top;align=left;overflow=fill;fontSize=12;fontFamily=Helvetica;html=1;" vertex="1" parent="cUQcjMx7HRZLJn6nIaJ0-9">
          <mxGeometry x="234.39590563165893" y="175" width="187.51902587519024" height="90" as="geometry" />
        </mxCell>
        <mxCell id="cUQcjMx7HRZLJn6nIaJ0-26" value="rosandroid" style="text;align=center;fontStyle=1;verticalAlign=middle;spacingLeft=3;spacingRight=3;strokeColor=none;rotatable=0;points=[[0,0.5],[1,0.5]];portConstraint=eastwest;" vertex="1" parent="cUQcjMx7HRZLJn6nIaJ0-27">
          <mxGeometry width="93.75951293759512" height="26" as="geometry" />
        </mxCell>
        <mxCell id="cUQcjMx7HRZLJn6nIaJ0-63" value="" style="group" vertex="1" connectable="0" parent="cUQcjMx7HRZLJn6nIaJ0-27">
          <mxGeometry x="49.99589041095891" y="50" width="189.86301369863014" height="270" as="geometry" />
        </mxCell>
        <mxCell id="cUQcjMx7HRZLJn6nIaJ0-64" value="" style="shape=folder;fontStyle=1;spacingTop=10;tabWidth=150;tabHeight=20;tabPosition=left;html=1;rounded=0;shadow=0;comic=0;labelBackgroundColor=none;strokeWidth=1;fontFamily=Verdana;fontSize=10;align=center;" vertex="1" parent="cUQcjMx7HRZLJn6nIaJ0-63">
          <mxGeometry width="189.86" height="270" as="geometry" />
        </mxCell>
        <mxCell id="cUQcjMx7HRZLJn6nIaJ0-66" value="model.entities.widgets" style="text;align=center;fontStyle=1;verticalAlign=middle;spacingLeft=3;spacingRight=3;strokeColor=none;rotatable=0;points=[[0,0.5],[1,0.5]];portConstraint=eastwest;" vertex="1" parent="cUQcjMx7HRZLJn6nIaJ0-63">
          <mxGeometry width="147.67123287671234" height="20" as="geometry" />
        </mxCell>
        <mxCell id="cUQcjMx7HRZLJn6nIaJ0-70" value="&lt;p style=&quot;margin: 0px ; margin-top: 4px ; text-align: center&quot;&gt;&lt;b&gt;BaseEntity&lt;/b&gt;&lt;/p&gt;&lt;hr size=&quot;1&quot;&gt;&lt;p style=&quot;margin: 0px ; margin-left: 4px&quot;&gt;+ field: Type&lt;/p&gt;&lt;hr size=&quot;1&quot;&gt;&lt;p style=&quot;margin: 0px ; margin-left: 4px&quot;&gt;+ method(): Type&lt;/p&gt;" style="verticalAlign=top;align=left;overflow=fill;fontSize=12;fontFamily=Helvetica;html=1;" vertex="1" parent="cUQcjMx7HRZLJn6nIaJ0-63">
          <mxGeometry x="9.174931506849308" y="30" width="171.5201369863014" height="90" as="geometry" />
        </mxCell>
        <mxCell id="cUQcjMx7HRZLJn6nIaJ0-65" value="&lt;p style=&quot;margin: 0px ; margin-top: 4px ; text-align: center&quot;&gt;&lt;b&gt;PublisherWidgetEntity&lt;/b&gt;&lt;/p&gt;&lt;hr size=&quot;1&quot;&gt;&lt;p style=&quot;margin: 0px ; margin-left: 4px&quot;&gt;+ field: Type&lt;/p&gt;&lt;hr size=&quot;1&quot;&gt;&lt;p style=&quot;margin: 0px ; margin-left: 4px&quot;&gt;+ method(): Type&lt;/p&gt;" style="verticalAlign=top;align=left;overflow=fill;fontSize=12;fontFamily=Helvetica;html=1;" vertex="1" parent="cUQcjMx7HRZLJn6nIaJ0-63">
          <mxGeometry x="9.174931506849319" y="160" width="171.5201369863014" height="90" as="geometry" />
        </mxCell>
        <mxCell id="cUQcjMx7HRZLJn6nIaJ0-67" value="Extends" style="endArrow=open;endSize=10;endFill=0;html=1;shadow=0;sketch=0;dashed=1;edgeStyle=orthogonalEdgeStyle;entryX=0;entryY=0.5;entryDx=0;entryDy=0;exitX=0;exitY=0.5;exitDx=0;exitDy=0;" edge="1" parent="cUQcjMx7HRZLJn6nIaJ0-27" source="cUQcjMx7HRZLJn6nIaJ0-65" target="cUQcjMx7HRZLJn6nIaJ0-25">
          <mxGeometry width="160" relative="1" as="geometry">
            <mxPoint x="336.15773972602733" y="184" as="sourcePoint" />
            <mxPoint x="148" y="530" as="targetPoint" />
            <Array as="points">
              <mxPoint x="30" y="255" />
              <mxPoint x="30" y="565" />
            </Array>
          </mxGeometry>
        </mxCell>
        <mxCell id="cUQcjMx7HRZLJn6nIaJ0-10" value="" style="group" vertex="1" connectable="0" parent="cUQcjMx7HRZLJn6nIaJ0-27">
          <mxGeometry x="460" y="50" width="183.5" height="130" as="geometry" />
        </mxCell>
        <mxCell id="cUQcjMx7HRZLJn6nIaJ0-11" value="" style="shape=folder;fontStyle=1;spacingTop=10;tabWidth=123;tabHeight=24;tabPosition=left;html=1;rounded=0;shadow=0;comic=0;labelBackgroundColor=none;strokeWidth=1;fontFamily=Verdana;fontSize=10;align=center;" vertex="1" parent="cUQcjMx7HRZLJn6nIaJ0-10">
          <mxGeometry width="183.5" height="130" as="geometry" />
        </mxCell>
        <mxCell id="cUQcjMx7HRZLJn6nIaJ0-12" value="&lt;p style=&quot;margin: 0px ; margin-top: 4px ; text-align: center&quot;&gt;&lt;b&gt;BaseData&lt;/b&gt;&lt;/p&gt;&lt;hr size=&quot;1&quot;&gt;&lt;p style=&quot;margin: 0px ; margin-left: 4px&quot;&gt;+ field: Type&lt;/p&gt;&lt;hr size=&quot;1&quot;&gt;&lt;p style=&quot;margin: 0px ; margin-left: 4px&quot;&gt;+ toRosMessage(): Type&lt;/p&gt;" style="verticalAlign=top;align=left;overflow=fill;fontSize=12;fontFamily=Helvetica;html=1;" vertex="1" parent="cUQcjMx7HRZLJn6nIaJ0-10">
          <mxGeometry x="7.54" y="34" width="162.46" height="90" as="geometry" />
        </mxCell>
        <mxCell id="cUQcjMx7HRZLJn6nIaJ0-13" value="rosRepo.node" style="text;align=center;fontStyle=1;verticalAlign=middle;spacingLeft=3;spacingRight=3;strokeColor=none;rotatable=0;points=[[0,0.5],[1,0.5]];portConstraint=eastwest;" vertex="1" parent="cUQcjMx7HRZLJn6nIaJ0-10">
          <mxGeometry x="23.500892857142855" width="52.42857142857142" height="26" as="geometry" />
        </mxCell>
        <mxCell id="cUQcjMx7HRZLJn6nIaJ0-14" value="Extends" style="endArrow=open;endSize=10;endFill=0;html=1;exitX=0.5;exitY=1;exitDx=0;exitDy=0;entryX=0.5;entryY=0;entryDx=0;entryDy=0;rounded=1;shadow=0;sketch=0;dashed=1;" edge="1" parent="cUQcjMx7HRZLJn6nIaJ0-27" source="cUQcjMx7HRZLJn6nIaJ0-12" target="cUQcjMx7HRZLJn6nIaJ0-2">
          <mxGeometry width="160" relative="1" as="geometry">
            <mxPoint x="161.5" y="188.5" as="sourcePoint" />
            <mxPoint x="205.5" y="305" as="targetPoint" />
          </mxGeometry>
        </mxCell>
        <mxCell id="cUQcjMx7HRZLJn6nIaJ0-71" value="Extends" style="endArrow=open;endSize=10;endFill=0;html=1;shadow=0;sketch=0;dashed=1;edgeStyle=orthogonalEdgeStyle;entryX=1;entryY=0.75;entryDx=0;entryDy=0;exitX=0.5;exitY=1;exitDx=0;exitDy=0;" edge="1" parent="cUQcjMx7HRZLJn6nIaJ0-27" source="cUQcjMx7HRZLJn6nIaJ0-75" target="cUQcjMx7HRZLJn6nIaJ0-69">
          <mxGeometry width="160" relative="1" as="geometry">
            <mxPoint x="39.1708219178081" y="189" as="sourcePoint" />
            <mxPoint x="128.16563165905632" y="499" as="targetPoint" />
            <Array as="points">
              <mxPoint x="638" y="588" />
            </Array>
          </mxGeometry>
        </mxCell>
        <mxCell id="cUQcjMx7HRZLJn6nIaJ0-73" value="" style="group;rotation=90;" vertex="1" connectable="0" parent="cUQcjMx7HRZLJn6nIaJ0-27">
          <mxGeometry x="516.52" y="360" width="213" height="191.13" as="geometry" />
        </mxCell>
        <mxCell id="cUQcjMx7HRZLJn6nIaJ0-74" value="" style="shape=folder;fontStyle=1;spacingTop=10;tabWidth=123;tabHeight=24;tabPosition=left;html=1;rounded=0;shadow=0;comic=0;labelBackgroundColor=none;strokeWidth=1;fontFamily=Verdana;fontSize=10;align=center;" vertex="1" parent="cUQcjMx7HRZLJn6nIaJ0-73">
          <mxGeometry x="33" y="46.06" width="180" height="133.94" as="geometry" />
        </mxCell>
        <mxCell id="cUQcjMx7HRZLJn6nIaJ0-75" value="&lt;p style=&quot;margin: 0px ; margin-top: 4px ; text-align: center&quot;&gt;&lt;b&gt;PublisherWidgetViewHolder&lt;/b&gt;&lt;/p&gt;&lt;hr size=&quot;1&quot;&gt;&lt;p style=&quot;margin: 0px ; margin-left: 4px&quot;&gt;+ field: Type&lt;/p&gt;&lt;hr size=&quot;1&quot;&gt;&lt;p style=&quot;margin: 0px ; margin-left: 4px&quot;&gt;+ method(): Type&lt;/p&gt;" style="verticalAlign=top;align=left;overflow=fill;fontSize=12;fontFamily=Helvetica;html=1;" vertex="1" parent="cUQcjMx7HRZLJn6nIaJ0-73">
          <mxGeometry x="40.39" y="85.56" width="162.61" height="81.74" as="geometry" />
        </mxCell>
        <mxCell id="cUQcjMx7HRZLJn6nIaJ0-76" value="ui.views.details" style="text;align=center;fontStyle=1;verticalAlign=middle;spacingLeft=3;spacingRight=3;strokeColor=none;rotatable=0;points=[[0,0.5],[1,0.5]];portConstraint=eastwest;" vertex="1" parent="cUQcjMx7HRZLJn6nIaJ0-73">
          <mxGeometry x="40.39" y="46.0635157854617" width="110" height="30.703614457831325" as="geometry" />
        </mxCell>
        <mxCell id="6e0c8c40b5770093-18" value="" style="group;rotation=90;" parent="1" vertex="1" connectable="0">
          <mxGeometry x="560" y="290" width="180" height="124.5" as="geometry" />
        </mxCell>
        <mxCell id="6e0c8c40b5770093-11" value="" style="shape=folder;fontStyle=1;spacingTop=10;tabWidth=123;tabHeight=24;tabPosition=left;html=1;rounded=0;shadow=0;comic=0;labelBackgroundColor=none;strokeWidth=1;fontFamily=Verdana;fontSize=10;align=center;" parent="6e0c8c40b5770093-18" vertex="1">
          <mxGeometry width="180" height="130" as="geometry" />
        </mxCell>
        <mxCell id="cUQcjMx7HRZLJn6nIaJ0-3" value="&lt;p style=&quot;margin: 0px ; margin-top: 4px ; text-align: center&quot;&gt;&lt;b&gt;PublisherWidgetView&lt;/b&gt;&lt;/p&gt;&lt;hr size=&quot;1&quot;&gt;&lt;p style=&quot;margin: 0px ; margin-left: 4px&quot;&gt;+ field: Type&lt;/p&gt;&lt;hr size=&quot;1&quot;&gt;&lt;p style=&quot;margin: 0px ; margin-left: 4px&quot;&gt;+ method(): Type&lt;/p&gt;" style="verticalAlign=top;align=left;overflow=fill;fontSize=12;fontFamily=Helvetica;html=1;" vertex="1" parent="6e0c8c40b5770093-18">
          <mxGeometry x="7.39" y="34" width="162.61" height="90" as="geometry" />
        </mxCell>
        <mxCell id="cUQcjMx7HRZLJn6nIaJ0-72" value="ui.views.widgets" style="text;align=center;fontStyle=1;verticalAlign=middle;spacingLeft=3;spacingRight=3;strokeColor=none;rotatable=0;points=[[0,0.5],[1,0.5]];portConstraint=eastwest;" vertex="1" parent="6e0c8c40b5770093-18">
          <mxGeometry x="7.39" width="110" height="20" as="geometry" />
        </mxCell>
        <mxCell id="cUQcjMx7HRZLJn6nIaJ0-8" value="Extends" style="endArrow=open;endSize=10;endFill=0;html=1;exitX=0.5;exitY=1;exitDx=0;exitDy=0;entryX=0.5;entryY=0;entryDx=0;entryDy=0;rounded=1;shadow=0;sketch=0;dashed=1;" edge="1" parent="1" source="cUQcjMx7HRZLJn6nIaJ0-3" target="cUQcjMx7HRZLJn6nIaJ0-1">
          <mxGeometry width="160" relative="1" as="geometry">
            <mxPoint x="800" y="490" as="sourcePoint" />
            <mxPoint x="960" y="490" as="targetPoint" />
          </mxGeometry>
        </mxCell>
        <mxCell id="cUQcjMx7HRZLJn6nIaJ0-28" value="" style="group" vertex="1" connectable="0" parent="1">
          <mxGeometry x="1100" y="240" width="270" height="573" as="geometry" />
        </mxCell>
        <mxCell id="cUQcjMx7HRZLJn6nIaJ0-29" value="" style="shape=folder;fontStyle=1;spacingTop=10;tabWidth=194;tabHeight=22;tabPosition=left;html=1;rounded=0;shadow=0;comic=0;labelBackgroundColor=none;strokeWidth=1;fillColor=none;fontFamily=Verdana;fontSize=10;align=center;" vertex="1" parent="cUQcjMx7HRZLJn6nIaJ0-28">
          <mxGeometry y="3" width="270" height="570" as="geometry" />
        </mxCell>
        <mxCell id="cUQcjMx7HRZLJn6nIaJ0-30" value="org.ros" style="text;align=center;fontStyle=1;verticalAlign=middle;spacingLeft=3;spacingRight=3;strokeColor=none;rotatable=0;points=[[0,0.5],[1,0.5]];portConstraint=eastwest;" vertex="1" parent="cUQcjMx7HRZLJn6nIaJ0-28">
          <mxGeometry x="20" width="32.87671232876712" height="26" as="geometry" />
        </mxCell>
        <mxCell id="cUQcjMx7HRZLJn6nIaJ0-32" value="internal.message.Message" style="shape=folder;fontStyle=1;spacingTop=10;tabWidth=40;tabHeight=14;tabPosition=left;html=1;" vertex="1" parent="cUQcjMx7HRZLJn6nIaJ0-28">
          <mxGeometry x="7.4" y="150" width="192.6" height="80" as="geometry" />
        </mxCell>
        <mxCell id="cUQcjMx7HRZLJn6nIaJ0-40" value="geometry.msgs" style="swimlane;fontStyle=0;childLayout=stackLayout;horizontal=1;startSize=26;fillColor=none;horizontalStack=0;resizeParent=1;resizeParentMax=0;resizeLast=0;collapsible=1;marginBottom=0;" vertex="1" parent="cUQcjMx7HRZLJn6nIaJ0-28">
          <mxGeometry x="7.4" y="250" width="122.6" height="78" as="geometry">
            <mxRectangle x="250" y="120" width="110" height="26" as="alternateBounds" />
          </mxGeometry>
        </mxCell>
        <mxCell id="cUQcjMx7HRZLJn6nIaJ0-41" value="+ field: Twist" style="text;strokeColor=none;fillColor=none;align=left;verticalAlign=top;spacingLeft=4;spacingRight=4;overflow=hidden;rotatable=0;points=[[0,0.5],[1,0.5]];portConstraint=eastwest;" vertex="1" parent="cUQcjMx7HRZLJn6nIaJ0-40">
          <mxGeometry y="26" width="122.6" height="26" as="geometry" />
        </mxCell>
        <mxCell id="cUQcjMx7HRZLJn6nIaJ0-42" value="+ field: Vector3" style="text;strokeColor=none;fillColor=none;align=left;verticalAlign=top;spacingLeft=4;spacingRight=4;overflow=hidden;rotatable=0;points=[[0,0.5],[1,0.5]];portConstraint=eastwest;" vertex="1" parent="cUQcjMx7HRZLJn6nIaJ0-40">
          <mxGeometry y="52" width="122.6" height="26" as="geometry" />
        </mxCell>
        <mxCell id="cUQcjMx7HRZLJn6nIaJ0-51" value="" style="group" vertex="1" connectable="0" parent="cUQcjMx7HRZLJn6nIaJ0-28">
          <mxGeometry x="7.399999999999999" y="40" width="183.5" height="100" as="geometry" />
        </mxCell>
        <mxCell id="cUQcjMx7HRZLJn6nIaJ0-52" value="" style="shape=folder;fontStyle=1;spacingTop=10;tabWidth=100;tabHeight=30;tabPosition=left;html=1;rounded=0;shadow=0;comic=0;labelBackgroundColor=none;strokeWidth=1;fontFamily=Verdana;fontSize=10;align=center;" vertex="1" parent="cUQcjMx7HRZLJn6nIaJ0-51">
          <mxGeometry width="150" height="100" as="geometry" />
        </mxCell>
        <mxCell id="cUQcjMx7HRZLJn6nIaJ0-54" value="node.topic" style="text;align=center;fontStyle=1;verticalAlign=middle;spacingLeft=3;spacingRight=3;strokeColor=none;rotatable=0;points=[[0,0.5],[1,0.5]];portConstraint=eastwest;" vertex="1" parent="cUQcjMx7HRZLJn6nIaJ0-51">
          <mxGeometry x="23.500892857142855" width="52.42857142857142" height="20" as="geometry" />
        </mxCell>
        <mxCell id="cUQcjMx7HRZLJn6nIaJ0-62" value="«interface»&lt;br&gt;&lt;span style=&quot;font-weight: 700&quot;&gt;Publisher&lt;/span&gt;" style="html=1;" vertex="1" parent="cUQcjMx7HRZLJn6nIaJ0-51">
          <mxGeometry x="10" y="40" width="110" height="50" as="geometry" />
        </mxCell>
        <mxCell id="cUQcjMx7HRZLJn6nIaJ0-48" value="" style="endArrow=open;endFill=1;endSize=12;html=1;shadow=0;dashed=1;exitX=0;exitY=0.5;exitDx=0;exitDy=0;entryX=1;entryY=0;entryDx=0;entryDy=0;" edge="1" parent="1" source="cUQcjMx7HRZLJn6nIaJ0-62" target="cUQcjMx7HRZLJn6nIaJ0-2">
          <mxGeometry width="160" relative="1" as="geometry">
            <mxPoint x="1107.4" y="337" as="sourcePoint" />
            <mxPoint x="970" y="590" as="targetPoint" />
          </mxGeometry>
        </mxCell>
        <mxCell id="cUQcjMx7HRZLJn6nIaJ0-49" value="" style="endArrow=open;endFill=1;endSize=12;html=1;shadow=0;dashed=1;exitX=0;exitY=0;exitDx=0;exitDy=47;exitPerimeter=0;entryX=1;entryY=0;entryDx=0;entryDy=0;" edge="1" parent="1" source="cUQcjMx7HRZLJn6nIaJ0-32" target="cUQcjMx7HRZLJn6nIaJ0-2">
          <mxGeometry width="160" relative="1" as="geometry">
            <mxPoint x="1117.4" y="347" as="sourcePoint" />
            <mxPoint x="745.5555555555554" y="535" as="targetPoint" />
          </mxGeometry>
        </mxCell>
        <mxCell id="cUQcjMx7HRZLJn6nIaJ0-50" value="" style="endArrow=open;endFill=1;endSize=12;html=1;shadow=0;dashed=1;exitX=0;exitY=0.5;exitDx=0;exitDy=0;entryX=1;entryY=0;entryDx=0;entryDy=0;" edge="1" parent="1" source="cUQcjMx7HRZLJn6nIaJ0-41" target="cUQcjMx7HRZLJn6nIaJ0-2">
          <mxGeometry width="160" relative="1" as="geometry">
            <mxPoint x="1117.4" y="447" as="sourcePoint" />
            <mxPoint x="790" y="535" as="targetPoint" />
          </mxGeometry>
        </mxCell>
      </root>
    </mxGraphModel>
  </diagram>
</mxfile>
